<svg id="logosandtypes_com" xmlns="http://www.w3.org/2000/svg" viewBox="0 0 150 150"><path fill="none" d="M0 0h150v150H0z"/><g fill="#010101"><path d="M137.78 26.02V25H87.41v1.02c5.6 0 12.72.51 12.72 6.62 0 3.05-1.53 6.62-2.54 9.16l-22.9 51.4-22.9-51.4c-1.02-2.54-2.54-6.11-2.54-9.16 0-6.11 7.12-6.62 12.72-6.62V25H12.1v1.02c11.7 0 16.79 5.6 20.86 14.76l42.24 91.6 42.24-91.6c3.55-9.16 8.13-14.76 20.34-14.76zM64 115.58l-3.56-7.12L.9 29.07c0 37.15 35.62 56.48 35.62 56.48L64 115.58zM65.53 119.65l-44.27-34.6c0 19.34 27.48 26.97 27.48 26.97l17.3 10.18-.51-2.55zM57.38 120.67c0 1.53 8.65 6.11 8.65 6.11l5.09 5.6-4.07-8.14-9.67-3.57zM89.44 108.46l-3.56 7.12 27.48-30.02s35.62-19.34 35.62-56.48l-59.54 79.38zM83.34 121.69l17.3-10.18s27.48-7.63 27.48-26.97l-43.76 34.6-1.02 2.55zM79.27 132.37l5.09-5.6s8.65-4.58 8.65-6.11l-10.18 3.56-3.56 8.15z"/></g></svg>